<?xml version="1.0" encoding="UTF-8"?>
<!DOCTYPE svg PUBLIC "-//W3C//DTD SVG 1.1//EN" "http://www.w3.org/Graphics/SVG/1.1/DTD/svg11.dtd">
<svg xmlns="http://www.w3.org/2000/svg" xml:space="preserve" width="1200px" height="799px" style="shape-rendering:geometricPrecision; text-rendering:geometricPrecision; image-rendering:optimizeQuality; fill-rule:evenodd; clip-rule:evenodd" viewBox="0 0 860 573" xmlns:xlink="http://www.w3.org/1999/xlink">
<style type="text/css">
.fil1 {fill:#000065}
.fil0 {fill:#010066}
</style>
<path class="fil0" d="M130 135c2,-4 1,-3 4,-6 2,-2 3,-3 5,-4l25 -25c5,-5 29,-32 35,-32l164 0c12,0 17,2 23,9 27,28 53,52 79,78 10,10 19,21 32,30 30,22 68,17 110,17 41,0 84,-1 125,0 -3,6 -48,49 -60,60 -3,3 -5,7 -11,7l-143 0c-14,0 -29,2 -39,-6 -6,-5 -56,-55 -64,-64 -33,-33 -55,-65 -105,-65l-180 0zm468 -134c4,2 59,58 67,66 11,12 22,22 34,34l29 29c3,3 2,1 4,5 -43,0 -86,0 -130,0 -73,0 -57,4 -95,-34 -22,-22 -43,-43 -64,-65 -26,-26 -41,-36 -93,-36l-161 0c-17,0 -17,-3 -26,6l-97 97c-22,22 -44,43 -64,64 3,5 46,47 54,54 35,35 74,73 108,108 8,8 6,6 21,6 23,0 60,1 79,0 -12,-16 -127,-124 -133,-134 42,-2 87,0 130,0 72,0 57,-5 95,33 22,22 43,43 65,65 32,32 45,36 92,36l163 0c18,0 15,3 25,-7l129 -129c7,-7 27,-26 32,-33 -17,-18 -36,-36 -54,-54 -34,-34 -75,-73 -108,-108 -8,-8 -7,-6 -21,-6 -16,0 -71,-1 -79,1z"/>
<path class="fil0" d="M588 539c-2,-30 33,-31 34,-4 0,11 -3,23 -15,24 -13,1 -18,-8 -19,-20zm-18 1c2,45 73,43 70,-5 -3,-46 -72,-44 -70,5z"/>
<path class="fil0" d="M224 530c0,-20 30,-21 29,0l-29 0zm41 23c-17,6 -37,14 -41,-11l46 0c0,-19 -4,-34 -21,-39 -42,-13 -55,43 -31,62 14,11 31,7 47,2l0 -14z"/>
<path class="fil0" d="M770 540c0,8 -2,13 -7,17 -14,10 -29,-8 -14,-15 6,-3 14,-2 21,-2zm-36 -18c11,-4 37,-16 36,7 -11,2 -22,0 -32,4 -29,14 1,61 33,29l1 9 15 0c1,-12 0,-51 -5,-59 -6,-11 -24,-11 -37,-9 -2,0 -4,1 -6,2l-6 3 0 14z"/>
<path class="fil0" d="M668 571c1,-18 -5,-52 14,-55 19,-2 12,30 13,55l17 0c1,-12 2,-48 -3,-58 -8,-16 -32,-15 -41,-1l-1 -8 -17 0 0 67 17 0z"/>
<path class="fil0" d="M98 571c1,-18 -5,-54 14,-55 19,-1 10,29 13,55l17 0 0 -40c0,-15 -4,-25 -15,-28 -13,-4 -28,3 -30,9l-2 -9 -15 0 0 67 17 0z"/>
<path class="fil0" d="M427 546c10,-7 12,-6 26,-6 0,9 -3,17 -11,19 -11,3 -17,-2 -15,-13zm-10 -25c7,-3 11,-7 21,-7 10,0 15,5 14,14 -21,0 -48,2 -42,28 2,8 10,15 20,15 13,1 19,-6 24,-11l1 9 15 0c1,-12 0,-50 -5,-59 -8,-14 -32,-11 -48,-5l0 15z"/>
<path class="fil0" d="M351 570c1,-18 -6,-53 14,-55 19,-2 12,28 13,55l17 0c1,-13 2,-48 -3,-58 -9,-15 -27,-13 -42,-1l0 -8 -17 0 0 67 17 -1z"/>
<path class="fil0" d="M198 557c-12,3 -16,0 -16,-12 0,-7 -1,-23 1,-29l15 0 0 -13 -15 0 0 -19 -17 5 0 14 -13 0 1 13 12 1c0,35 -8,60 34,54l-1 -14z"/>
<path class="fil0" d="M479 516l13 0c0,33 -8,62 34,55l-1 -13c-20,4 -16,-3 -16,-41l15 0 0 -13 -15 0 0 -19 -17 6 0 13 -13 0 0 13z"/>
<polygon class="fil0" points="805,571 822,571 822,473 805,473 "/>
<polygon class="fil0" points="43,571 61,570 61,480 43,480 "/>
<path class="fil0" d="M303 570c1,-12 -1,-25 1,-37 2,-13 7,-16 21,-14l0 -17c-13,-2 -20,5 -24,14l0 -13 -16 0 0 67 17 0z"/>
<polygon class="fil1" points="539,571 556,571 556,503 539,503 539,505 "/>
<polygon class="fil0" points="539,491 556,491 556,479 556,474 539,474 539,479 539,487 "/>
</svg>